<?xml version="1.0" encoding="UTF-8"?>
<!-- Uploaded to: SVG Find, www.svgrepo.com, Generator: SVG Find Mixer Tools -->
<svg width="800px" height="800px" version="1.1" viewBox="144 144 512 512" xmlns="http://www.w3.org/2000/svg">
 <defs>
  <clipPath id="a">
   <path d="m148.09 274h503.81v252h-503.81z"/>
  </clipPath>
 </defs>
 <g clip-path="url(#a)">
  <path d="m181.68 525.95c0-120.57 97.746-218.32 218.32-218.32 120.57 0 218.32 97.746 218.32 218.32h33.586c0-139.12-112.78-251.9-251.9-251.9-139.12 0-251.91 112.78-251.91 251.9zm62.699 0c0-85.945 69.672-155.62 155.62-155.62 85.945 0 155.62 69.676 155.62 155.62h33.586c0-104.5-84.711-189.21-189.21-189.21-104.5 0-189.21 84.711-189.21 189.21zm62.695 0c0-51.32 41.602-92.922 92.926-92.922 51.32 0 92.922 41.602 92.922 92.922h33.59c0-69.867-56.641-126.51-126.51-126.51s-126.51 56.645-126.51 126.51zm92.926-30.227c-16.695 0-30.23 13.535-30.23 30.227h-33.586c0-35.242 28.57-63.812 63.816-63.812 35.242 0 63.812 28.57 63.812 63.812h-33.586c0-16.691-13.531-30.227-30.227-30.227z" fill-rule="evenodd"/>
 </g>
</svg>