<?xml version="1.0" encoding="UTF-8"?>
<!-- Uploaded to: SVG Find, www.svgrepo.com, Generator: SVG Find Mixer Tools -->
<svg width="800px" height="800px" version="1.1" viewBox="144 144 512 512" xmlns="http://www.w3.org/2000/svg">
 <defs>
  <clipPath id="a">
   <path d="m148.09 148.09h503.81v503.81h-503.81z"/>
  </clipPath>
 </defs>
 <g clip-path="url(#a)">
  <path d="m618.32 400c0 120.57-97.746 218.32-218.32 218.32-120.57 0-218.32-97.746-218.32-218.32 0-120.57 97.746-218.32 218.32-218.32 120.57 0 218.32 97.746 218.32 218.32zm33.586 0c0 139.12-112.78 251.9-251.9 251.9-139.12 0-251.91-112.78-251.91-251.9 0-139.12 112.78-251.91 251.91-251.91 139.12 0 251.9 112.78 251.9 251.91zm-268.7-5.5977v-134.35h33.59v134.35h123.15v33.586h-156.74z" fill-rule="evenodd"/>
 </g>
</svg>