<?xml version="1.0" encoding="UTF-8"?>
<!-- Uploaded to: SVG Find, www.svgrepo.com, Generator: SVG Find Mixer Tools -->
<svg width="800px" height="800px" version="1.1" viewBox="144 144 512 512" xmlns="http://www.w3.org/2000/svg">
 <defs>
  <clipPath id="a">
   <path d="m148.09 148.09h503.81v503.81h-503.81z"/>
  </clipPath>
 </defs>
 <g clip-path="url(#a)">
  <path d="m433.51 148.09v72.754h33.578v-72.754zm-31.77 207.07c-67.82 0-119.75 56.363-119.75 128.71h-33.16c-37.09 0-67.156 30.066-67.156 67.156s30.066 67.156 67.156 67.156h302.34c37.09 0 67.156-30.066 67.156-67.156s-30.066-67.156-67.156-67.156h-29.676c0-72.352-51.93-128.71-119.75-128.71zm-50.289-25.098c-51.793 18.281-89.098 64.293-99.859 120.23h-2.7617c-55.633 0-100.73 45.098-100.73 100.73 0 55.633 45.102 100.73 100.73 100.73h302.34c55.637 0 100.73-45.102 100.73-100.73 0-55.395-44.711-100.34-100.01-100.73-3.2109-16.691-8.7852-32.5-16.402-46.953 9.8438-15.562 15.543-34.008 15.543-53.781 0-55.633-45.102-100.73-100.73-100.73-48.965 0-89.77 34.934-98.848 81.234zm37.547-7.9688c4.1875-0.33984 8.4375-0.51562 12.742-0.51562 45.488 0 84.609 19.402 111.95 50.203 2.4375-6.9531 3.7656-14.434 3.7656-22.219 0-37.09-30.066-67.156-67.156-67.156-27.305 0-50.801 16.293-61.301 39.688zm262.77 44.258h-72.754v-33.578h72.754zm-355.71-147.29 51.352 51.352 23.742-23.742-51.352-51.352zm308.57-0.09375-51.441 51.445-23.742-23.742 51.441-51.445z" fill-rule="evenodd"/>
 </g>
</svg>