<?xml version="1.0" encoding="UTF-8"?>
<!-- Uploaded to: SVG Find, www.svgrepo.com, Generator: SVG Find Mixer Tools -->
<svg width="800px" height="800px" version="1.1" viewBox="144 144 512 512" xmlns="http://www.w3.org/2000/svg">
 <defs>
  <clipPath id="a">
   <path d="m148.09 234h503.81v332h-503.81z"/>
  </clipPath>
 </defs>
 <g clip-path="url(#a)">
  <path d="m281.99 397.16c0-72.352 51.93-128.72 119.75-128.72 67.824 0 119.75 56.367 119.75 128.72h29.676c37.09 0 67.156 30.066 67.156 67.156 0 37.086-30.066 67.152-67.156 67.152h-302.34c-37.09 0-67.156-30.066-67.156-67.152 0-37.09 30.066-67.156 67.156-67.156zm-30.398-33.578c13.996-72.754 72.891-128.72 150.15-128.72 77.266 0 136.16 55.969 150.15 128.72 55.301 0.39062 100.01 45.34 100.01 100.73 0 55.633-45.098 100.73-100.73 100.73h-302.34c-55.633 0-100.73-45.098-100.73-100.73 0-55.637 45.102-100.73 100.73-100.73z" fill-rule="evenodd"/>
 </g>
</svg>