<?xml version="1.0" encoding="UTF-8"?>
<!-- Uploaded to: SVG Find, www.svgrepo.com, Generator: SVG Find Mixer Tools -->
<svg width="800px" height="800px" version="1.1" viewBox="144 144 512 512" xmlns="http://www.w3.org/2000/svg">
 <defs>
  <clipPath id="a">
   <path d="m150 148.09h500v500.91h-500z"/>
  </clipPath>
 </defs>
 <g clip-path="url(#a)">
  <path d="m283.29 308.61c0-71.559 51.359-127.3 118.44-127.3s118.43 55.742 118.43 127.3h29.352c36.684 0 66.418 29.734 66.418 66.418 0 36.68-29.734 66.418-66.418 66.418h-299.02c-36.68 0-66.418-29.738-66.418-66.418 0-36.684 29.738-66.418 66.418-66.418zm-30.066-33.211c13.844-71.949 72.09-127.3 148.5-127.3 76.41 0 134.66 55.352 148.5 127.3 54.695 0.38281 98.914 44.84 98.914 99.625 0 55.02-44.605 99.625-99.629 99.625h-48.484l-36.551 45.707 57.965 22.699-61.543 105.32-28.672-16.754 41.953-71.797-63.801-24.984 48.129-60.188h-95.227l-36.551 45.707 57.965 22.699-61.543 105.32-28.672-16.754 41.953-71.797-63.801-24.984 48.129-60.188h-70.27c-55.023 0-99.625-44.605-99.625-99.625 0-55.023 44.602-99.629 99.625-99.629z" fill-rule="evenodd"/>
 </g>
</svg>