<?xml version="1.0" encoding="UTF-8"?>
<!-- Uploaded to: SVG Find, www.svgrepo.com, Generator: SVG Find Mixer Tools -->
<svg fill="#000000" width="800px" height="800px" version="1.1" viewBox="144 144 512 512" xmlns="http://www.w3.org/2000/svg">
 <path d="m211.07 242.56v314.88h377.86v-251.9h-201.73l-62.977-62.977h-113.17zm-15.746-31.488h141.7l62.977 62.977h204.67c4.5977 0 8.3672 1.4727 11.32 4.4219 2.9492 2.9492 4.4219 6.7227 4.4219 11.32v283.39c0 4.5977-1.4727 8.3672-4.4219 11.32-2.9531 2.9492-6.7227 4.4219-11.32 4.4219h-409.35c-4.5938 0-8.3672-1.4727-11.316-4.4219-2.9531-2.9531-4.4258-6.7227-4.4258-11.32v-346.37c0-4.5977 1.4727-8.3672 4.4258-11.32 2.9492-2.9492 6.7227-4.4219 11.316-4.4219zm125.95 204.67h157.44v31.488h-157.44z"/>
</svg>