<?xml version="1.0" encoding="UTF-8"?>
<!-- Uploaded to: SVG Find, www.svgrepo.com, Generator: SVG Find Mixer Tools -->
<svg fill="#000000" width="800px" height="800px" version="1.1" viewBox="144 144 512 512" xmlns="http://www.w3.org/2000/svg">
 <path d="m620.41 289.79c0-12.527-4.9766-24.539-13.832-33.398-8.8594-8.8555-20.871-13.832-33.398-13.832h-212.07l-16.844-17.16c-8.8867-9.1523-21.098-14.32-33.852-14.328h-83.602c-12.523 0-24.539 4.9766-33.398 13.832-8.8555 8.8594-13.832 20.871-13.832 33.398v283.39c0 12.527 4.9766 24.539 13.832 33.398 8.8594 8.8555 20.875 13.832 33.398 13.832h346.37c12.527 0 24.539-4.9766 33.398-13.832 8.8555-8.8594 13.832-20.871 13.832-33.398zm-47.23-15.742c4.1758 0 8.1797 1.6562 11.133 4.6094s4.6094 6.957 4.6094 11.133v18.578c-5.0469-1.832-10.371-2.7891-15.742-2.832h-144.21c-4.207-0.019531-8.2344-1.7188-11.18-4.7227l-25.977-26.766zm15.742 267.65c0 4.1758-1.6562 8.1797-4.6094 11.133s-6.957 4.6094-11.133 4.6094h-346.37c-4.1758 0-8.1797-1.6562-11.133-4.6094-2.9492-2.9531-4.6094-6.957-4.6094-11.133v-283.39c0-4.1758 1.6602-8.1797 4.6094-11.133 2.9531-2.9531 6.957-4.6094 11.133-4.6094h83.602c4.2617-0.027344 8.3516 1.6797 11.336 4.7227l73.367 75.414c8.8867 9.1484 21.094 14.316 33.852 14.328h144.21c4.1758 0 8.1797 1.6562 11.133 4.6094 2.9531 2.9531 4.6094 6.957 4.6094 11.133z"/>
</svg>