<?xml version="1.0" encoding="UTF-8"?>
<!-- Uploaded to: SVG Find, www.svgrepo.com, Generator: SVG Find Mixer Tools -->
<svg fill="#000000" width="800px" height="800px" version="1.1" viewBox="144 144 512 512" xmlns="http://www.w3.org/2000/svg">
 <path d="m399.97 173.99c-124.6 0-225.98 101.38-225.98 226.01 0 124.63 101.38 226 225.99 226 124.63 0 226-101.38 226-226 0.003906-124.63-101.39-226.01-226.02-226.01zm147.96 358.02c-15.352-7.2734-32.777-13.305-51.688-17.98 9.3203-29.332 15.066-63.418 16.23-100.34h85.426c-3.0977 45.297-21.426 86.387-49.969 118.32zm-345.87-118.32h85.426c1.1328 36.918 6.8945 71.004 16.199 100.34-18.879 4.6758-36.32 10.707-51.688 17.98-28.508-31.93-46.836-73.02-49.938-118.32zm49.941-145.7c15.367 7.2734 32.781 13.289 51.688 17.965-9.3203 29.332-15.066 63.418-16.199 100.34h-85.43c3.1016-45.297 21.43-86.371 49.941-118.3zm147.96 321.13c-21.129 0-42.965-20.012-59.324-54.648 18.941-2.8516 38.934-4.3945 59.324-4.3945 20.422 0 40.398 1.543 59.324 4.3945-16.328 34.621-38.199 54.648-59.324 54.648zm0-86.438c-23.945 0-47.453 2.0469-69.621 5.7773-8.6445-26.434-14.328-58.535-15.492-94.777h170.24c-1.1641 36.242-6.832 68.344-15.492 94.777-22.188-3.7305-45.66-5.7773-69.637-5.7773zm-85.113-116.39c1.1641-36.227 6.8633-68.328 15.492-94.777 22.168 3.7305 45.656 5.7773 69.621 5.7773 23.977 0 47.453-2.0312 69.621-5.7773 8.6758 26.449 14.328 58.535 15.492 94.777zm85.113-116.39c-20.387 0-40.367-1.543-59.324-4.3945 16.359-34.621 38.195-54.633 59.324-54.633s42.98 20.012 59.324 54.633c-18.926 2.8672-38.906 4.3945-59.324 4.3945zm54-60.867c27.094 7.668 51.906 20.812 72.973 38.383-12.234 5.0547-25.742 9.3047-40.227 12.723-9.0664-20.797-20.133-38.195-32.746-51.105zm-140.75 51.121c-14.453-3.418-27.98-7.668-40.18-12.723 21.066-17.57 45.879-30.715 72.973-38.383-12.609 12.895-23.727 30.293-32.793 51.105zm0 279.69c9.0703 20.797 20.137 38.195 32.746 51.105-27.062-7.668-51.875-20.812-72.941-38.383 12.25-5.0547 25.742-9.3047 40.195-12.723zm173.5 0c14.453 3.418 27.977 7.6523 40.227 12.723-21.066 17.57-45.879 30.715-72.973 38.383 12.613-12.91 23.68-30.305 32.746-51.105zm25.773-153.55c-1.1641-36.918-6.9102-71.004-16.23-100.34 18.91-4.6758 36.352-10.707 51.719-17.98 28.512 31.93 46.84 73.004 49.941 118.3h-85.43z"/>
</svg>