<?xml version="1.0" encoding="UTF-8"?>
<!-- Uploaded to: SVG Find, www.svgrepo.com, Generator: SVG Find Mixer Tools -->
<svg width="800px" height="800px" version="1.1" viewBox="144 144 512 512" xmlns="http://www.w3.org/2000/svg">
 <defs>
  <clipPath id="a">
   <path d="m212 148.09h376v503.81h-376z"/>
  </clipPath>
 </defs>
 <g clip-path="url(#a)">
  <path d="m587.53 180.2c-11.656-6.5469-23.887-12.191-36.598-16.84-26.992-9.875-56.145-15.266-86.555-15.266-139.12 0-251.91 112.78-251.91 251.91 0 139.12 112.78 251.9 251.91 251.9 30.41 0 59.562-5.3867 86.555-15.262 12.711-4.6523 24.941-10.297 36.598-16.844-11.234-6.3047-21.934-13.449-32.016-21.344-58.891-46.113-96.734-117.86-96.734-198.45 0-80.594 37.844-152.34 96.734-198.45 10.082-7.8984 20.781-15.039 32.016-21.348zm-68.645 8.332c-17.41-4.4727-35.668-6.8516-54.508-6.8516-120.57 0-218.32 97.746-218.32 218.32 0 120.57 97.742 218.32 218.32 218.32 18.84 0 37.098-2.3789 54.508-6.8516-57.52-52.203-93.695-127.6-93.695-211.46 0-83.871 36.176-159.27 93.695-211.47z" fill-rule="evenodd"/>
 </g>
</svg>