<?xml version="1.0" encoding="UTF-8"?>
<!-- Uploaded to: SVG Find, www.svgrepo.com, Generator: SVG Find Mixer Tools -->
<svg width="800px" height="800px" version="1.1" viewBox="144 144 512 512" xmlns="http://www.w3.org/2000/svg">
 <defs>
  <clipPath id="a">
   <path d="m148.09 150h503.81v500h-503.81z"/>
  </clipPath>
 </defs>
 <g clip-path="url(#a)">
  <path d="m281.99 313.23c0-72.371 51.93-128.75 119.75-128.75 67.824 0 119.75 56.379 119.75 128.75h29.676c37.09 0 67.156 30.074 67.156 67.176 0 37.098-30.066 67.176-67.156 67.176h-302.34c-37.09 0-67.156-30.078-67.156-67.176 0-37.102 30.066-67.176 67.156-67.176zm-30.398-33.586c13.996-72.77 72.891-128.75 150.15-128.75 77.266 0 136.16 55.98 150.15 128.75 55.301 0.38672 100.01 45.352 100.01 100.76 0 55.648-45.098 100.76-100.73 100.76h-22.453v39.184h-33.578v-39.184h-190.28v39.184h-33.578v-39.184h-22.453c-55.633 0-100.73-45.113-100.73-100.76s45.102-100.76 100.73-100.76zm19.691 324.68v-55.977h33.578v55.977zm111.93-95.164v55.98h33.578v-55.98zm0 139.95v-55.98h33.578v55.98zm111.93-100.76v55.977h33.578v-55.977z" fill-rule="evenodd"/>
 </g>
</svg>