<?xml version="1.0" encoding="UTF-8"?>
<!-- Uploaded to: SVG Find, www.svgrepo.com, Generator: SVG Find Mixer Tools -->
<svg width="800px" height="800px" version="1.1" viewBox="144 144 512 512" xmlns="http://www.w3.org/2000/svg">
 <defs>
  <clipPath id="a">
   <path d="m148.09 148.09h503.81v503.81h-503.81z"/>
  </clipPath>
 </defs>
 <g clip-path="url(#a)">
  <path d="m401.74 181.67c-67.82 0-119.75 56.363-119.75 128.71h-33.16c-37.09 0-67.156 30.066-67.156 67.156 0 37.09 30.066 67.156 67.156 67.156h302.34c37.09 0 67.156-30.066 67.156-67.156 0-37.09-30.066-67.156-67.156-67.156h-29.676c0-72.352-51.93-128.71-119.75-128.71zm0-33.578c-77.258 0-136.15 55.965-150.15 128.71h-2.7617c-55.633 0-100.73 45.102-100.73 100.73 0 55.633 45.102 100.73 100.73 100.73h22.387v117.52h33.574v-117.52h190.28v117.52h33.578v-117.52h22.523c55.637 0 100.73-45.102 100.73-100.73 0-55.391-44.711-100.34-100.01-100.73-13.996-72.754-72.887-128.72-150.15-128.72zm14.98 503.67v-145.51h-33.578v145.51z" fill-rule="evenodd"/>
 </g>
</svg>