<?xml version="1.0" encoding="UTF-8"?>
<!-- Uploaded to: SVG Find, www.svgrepo.com, Generator: SVG Find Mixer Tools -->
<svg width="800px" height="800px" version="1.1" viewBox="144 144 512 512" xmlns="http://www.w3.org/2000/svg">
 <defs>
  <clipPath id="a">
   <path d="m148.09 150h503.81v499h-503.81z"/>
  </clipPath>
 </defs>
 <g clip-path="url(#a)">
  <path d="m281.99 313.19c0-72.352 51.93-128.72 119.75-128.72 67.824 0 119.75 56.367 119.75 128.72h29.676c37.09 0 67.156 30.066 67.156 67.156s-30.066 67.156-67.156 67.156h-302.34c-37.09 0-67.156-30.066-67.156-67.156s30.066-67.156 67.156-67.156zm-30.398-33.578c13.996-72.75 72.891-128.71 150.15-128.71 77.266 0 136.16 55.965 150.15 128.71 55.301 0.39062 100.01 45.34 100.01 100.73 0 55.633-45.098 100.73-100.73 100.73h-302.34c-55.633 0-100.73-45.102-100.73-100.73 0-55.637 45.102-100.73 100.73-100.73zm243.55 246.24v-33.578h33.578v33.578zm-111.93-5.5977v33.578h33.578v-33.578zm0 95.137v-33.578h33.578v33.582zm111.93-61.559v33.578h33.578v-33.578zm-223.86-27.98v-33.578h33.578v33.578zm0 27.98v33.578h33.578v-33.578zm0 95.137v-33.574h33.578v33.574zm223.86-33.574v33.574h33.578v-33.574z" fill-rule="evenodd"/>
 </g>
</svg>