<?xml version="1.0" encoding="UTF-8"?>
<!-- Uploaded to: SVG Find, www.svgrepo.com, Generator: SVG Find Mixer Tools -->
<svg width="800px" height="800px" version="1.1" viewBox="144 144 512 512" xmlns="http://www.w3.org/2000/svg">
 <defs>
  <clipPath id="a">
   <path d="m167 148.09h465v503.81h-465z"/>
  </clipPath>
 </defs>
 <g clip-path="url(#a)">
  <path d="m256.2 463.45 39.551-22.836c-8.8242-25.387-8.5195-53.812 2.3711-79.867l-41.922-24.203-74.32 34.656-14.195-30.441 53.008-24.719-47.555-27.453 16.797-29.086 47.551 27.453-5.0977-58.266 33.461-2.9258 7.1445 81.691 42.547 24.566c17.457-20.953 41.57-34.27 67.359-38.629v-49.391l-67.176-47.035 19.266-27.512 47.91 33.547v-54.91h33.586v54.91l47.91-33.547 19.266 27.512-67.176 47.035v48.82c14.039 1.8906 27.949 6.4961 40.98 14.02 11.172 6.4531 20.812 14.539 28.793 23.781l40.129-23.168 7.1484-81.691 33.461 2.9258-5.0977 58.266 47.551-27.453 16.793 29.086-47.551 27.453 53.008 24.719-14.195 30.441-74.32-34.656-39.051 22.543c11.242 25.867 12.629 55.688 2.4883 83.254l36.562 21.109 74.32-34.656 14.195 30.438-53.008 24.719 47.551 27.453-16.793 29.09-47.551-27.457 5.0977 58.266-33.461 2.9258-7.1484-81.691-35.938-20.75c-18.406 24.148-45.301 39.07-73.965 42.969v41.234l67.176 47.035-19.266 27.516-47.91-33.547v54.906h-33.586v-54.906l-47.91 33.547-19.266-27.516 67.176-47.035v-41.754c-12.82-2.1562-25.477-6.5977-37.391-13.477-13.773-7.9492-25.215-18.383-34.09-30.406l-38.426 22.184-7.1445 81.695-33.461-2.9297 5.0977-58.266-47.555 27.457-16.793-29.09 47.555-27.453-53.008-24.719 14.195-30.438zm184.47-127.52c37.48 21.641 50.324 69.57 28.684 107.05s-69.57 50.328-107.05 28.684c-37.484-21.641-50.328-69.57-28.688-107.05 21.641-37.484 69.574-50.328 107.06-28.684z" fill-rule="evenodd"/>
 </g>
</svg>