<?xml version="1.0" encoding="UTF-8"?>
<!-- Uploaded to: SVG Find, www.svgrepo.com, Generator: SVG Find Mixer Tools -->
<svg width="800px" height="800px" version="1.1" viewBox="144 144 512 512" xmlns="http://www.w3.org/2000/svg">
 <defs>
  <clipPath id="a">
   <path d="m148.09 148.09h503.81v500.91h-503.81z"/>
  </clipPath>
 </defs>
 <g clip-path="url(#a)">
  <path d="m452.85 217.89h73.395l-59.379 43.141 22.68 69.801-59.375-43.141-59.375 43.141 22.68-69.801-59.375-43.141h73.391l22.68-69.801zm-70.547 208.16-44.73-137.66-44.73 137.66h-144.75l117.1 85.078-44.727 137.66 117.1-85.082 117.1 85.082-44.727-137.66 117.1-85.078zm41.113 33.672h-65.578l-20.266-62.371-20.266 62.371h-65.578l53.055 38.547-20.266 62.367 53.055-38.547 53.055 38.547-20.266-62.367zm162.52-121.33 12.602-38.781 12.598 38.781h40.773l-32.984 23.965 12.598 38.777-32.984-23.965-32.988 23.965 12.602-38.777-32.988-23.965z" fill-rule="evenodd"/>
 </g>
</svg>