<?xml version="1.0" encoding="UTF-8"?>
<!-- Uploaded to: SVG Find, www.svgrepo.com, Generator: SVG Find Mixer Tools -->
<svg width="800px" height="800px" version="1.1" viewBox="144 144 512 512" xmlns="http://www.w3.org/2000/svg">
 <defs>
  <clipPath id="a">
   <path d="m148.09 148.09h503.81v503.81h-503.81z"/>
  </clipPath>
 </defs>
 <g clip-path="url(#a)">
  <path d="m383.2 232.06v-83.969h33.59v83.969zm16.797 274.3c58.738 0 106.36-47.621 106.36-106.36 0-58.742-47.621-106.36-106.36-106.36-58.742 0-106.36 47.617-106.36 106.36 0 58.738 47.617 106.36 106.36 106.36zm0 33.586c77.289 0 139.95-62.656 139.95-139.95 0-77.293-62.656-139.95-139.95-139.95-77.293 0-139.95 62.656-139.95 139.95 0 77.289 62.656 139.95 139.95 139.95zm167.93-123.15h83.969v-33.59h-83.969zm-335.87 0h-83.969v-33.59h83.969zm151.14 151.14v83.969h33.59v-83.969zm-115.85-276.83-59.371-59.375 23.746-23.746 59.375 59.371zm261.25 0 59.375-59.375-23.75-23.746-59.375 59.371zm-237.5 237.5-59.375 59.375-23.746-23.75 59.371-59.375zm213.75 0 59.375 59.375 23.75-23.75-59.375-59.375z" fill-rule="evenodd"/>
 </g>
</svg>