<?xml version="1.0" encoding="UTF-8"?>
<!-- Uploaded to: SVG Find, www.svgrepo.com, Generator: SVG Find Mixer Tools -->
<svg width="800px" height="800px" version="1.1" viewBox="144 144 512 512" xmlns="http://www.w3.org/2000/svg">
 <defs>
  <clipPath id="a">
   <path d="m276 148.09h248v503.81h-248z"/>
  </clipPath>
 </defs>
 <g clip-path="url(#a)">
  <path d="m433.59 215.27v230.43c32.824 13.285 55.98 45.465 55.98 83.055 0 49.465-40.102 89.566-89.566 89.566-49.469 0-89.566-40.102-89.566-89.566 0-37.59 23.152-69.77 55.977-83.055v-230.43c0-18.551 15.039-33.59 33.59-33.59 18.547 0 33.586 15.039 33.586 33.59zm-100.76 210.24v-210.24c0-37.102 30.074-67.176 67.176-67.176 37.098 0 67.172 30.074 67.172 67.176v210.24c33.703 21.977 55.98 60.004 55.98 103.24 0 68.016-55.137 123.15-123.15 123.15s-123.16-55.137-123.16-123.15c0-43.234 22.277-81.262 55.98-103.24zm128.75 103.24c0 34.008-27.566 61.578-61.574 61.578s-61.578-27.57-61.578-61.578c0-28.188 18.938-51.949 44.781-59.258v-103.08h33.59v103.08c25.844 7.3086 44.781 31.07 44.781 59.258z" fill-rule="evenodd"/>
 </g>
</svg>