<?xml version="1.0" encoding="UTF-8"?>
<!-- Uploaded to: SVG Find, www.svgrepo.com, Generator: SVG Find Mixer Tools -->
<svg width="800px" height="800px" version="1.1" viewBox="144 144 512 512" xmlns="http://www.w3.org/2000/svg">
 <defs>
  <clipPath id="a">
   <path d="m187 148.09h426v503.81h-426z"/>
  </clipPath>
 </defs>
 <g clip-path="url(#a)">
  <path d="m344.02 410.23v-194.96c0-18.551-15.039-33.59-33.586-33.59-18.551 0-33.59 15.039-33.59 33.59v230.43c-32.824 13.285-55.977 45.465-55.977 83.055 0 49.465 40.098 89.566 89.566 89.566 49.465 0 89.566-40.102 89.566-89.566 0-37.59-23.156-69.77-55.98-83.055zm-100.76-194.96v210.24c-33.703 21.977-55.98 60.004-55.98 103.24 0 68.016 55.141 123.15 123.16 123.15s123.15-55.137 123.15-123.15c0-43.234-22.277-81.262-55.98-103.24v-210.24c0-37.102-30.074-67.176-67.172-67.176-37.102 0-67.176 30.074-67.176 67.176zm67.176 375.06c34.008 0 61.574-27.57 61.574-61.578 0-28.188-18.938-51.949-44.781-59.258v-103.08h-33.586v103.08c-25.848 7.3086-44.785 31.07-44.785 59.258 0 34.008 27.57 61.578 61.578 61.578zm128.75-358.27h173.54v-33.586h-173.54zm173.54 83.969h-173.54v-33.59h173.54zm-173.54 83.969h173.54v-33.59h-173.54z" fill-rule="evenodd"/>
 </g>
</svg>