<?xml version="1.0" encoding="UTF-8"?>
<!-- Uploaded to: SVG Find, www.svgrepo.com, Generator: SVG Find Mixer Tools -->
<svg width="800px" height="800px" version="1.1" viewBox="144 144 512 512" xmlns="http://www.w3.org/2000/svg">
 <defs>
  <clipPath id="a">
   <path d="m148.09 162h503.81v473h-503.81z"/>
  </clipPath>
 </defs>
 <g clip-path="url(#a)">
  <path d="m264.16 162.31c23.758 1.5039 46.371 10.734 64.398 26.285 18.027 15.551 30.473 36.566 35.449 59.848 4.9727 23.281 2.1992 47.551-7.9023 69.109l-30.414-14.246c6.9922-14.926 8.9102-31.727 5.4688-47.844-3.4414-16.117-12.062-30.668-24.539-41.434-12.48-10.766-28.137-17.156-44.586-18.199s-32.785 3.3203-46.527 12.426c-13.738 9.1055-24.121 22.449-29.57 38.004-5.4531 15.555-5.668 32.465-0.61328 48.152 5.0508 15.688 15.09 29.293 28.594 38.746 12.688 8.8828 27.777 13.637 43.219 13.664h0.23828c0.91016-0.003906 1.8242-0.019531 2.7344-0.054687l0.003906 0.054687h391.79v33.586h-397.45v-0.035156c-21.383-0.55078-42.191-7.3711-59.801-19.699-19.504-13.652-34.008-33.305-41.305-55.965-7.2969-22.664-6.9844-47.086 0.88672-69.555s22.871-41.746 42.719-54.898c19.844-13.148 43.441-19.453 67.203-17.945zm2.4102 472.19c23.758-1.5039 46.371-10.734 64.398-26.285 18.027-15.551 30.473-36.566 35.449-59.848 4.9727-23.281 2.1992-47.551-7.9023-69.109l-30.414 14.246c6.9922 14.926 8.9102 31.727 5.4688 47.844-3.4453 16.121-12.062 30.668-24.539 41.434-12.48 10.766-28.137 17.16-44.586 18.199-16.449 1.043-32.789-3.3203-46.527-12.426-13.738-9.1055-24.121-22.449-29.57-38.004-5.4531-15.555-5.668-32.465-0.61719-48.152 5.0547-15.688 15.094-29.297 28.598-38.746 13.5-9.4531 29.723-14.23 46.191-13.609l0.003906-0.050781h251.85v-33.59h-251.91v0.035156c-23.332-0.59766-46.258 6.3008-65.398 19.699-19.504 13.652-34.008 33.305-41.305 55.969-7.2969 22.66-6.9844 47.082 0.88672 69.551 7.8711 22.469 22.871 41.746 42.719 54.898 19.844 13.148 43.441 19.453 67.203 17.945z" fill-rule="evenodd"/>
 </g>
</svg>